<svg xmlns="http://www.w3.org/2000/svg" width="22" height="22" viewBox="3 3 26 26">
  <path d="M 5 14 L 9 5 L 12 13 Q 16 13.6 20 13 L 23 5 L 27 14 C 27 24 24 28 16 28 C 8 28 5 24 5 14 Z"
        fill="#FFFFFF" stroke="#2A2A2A" stroke-width="1.3" stroke-linejoin="round" stroke-linecap="round"/>
  <path d="M 9.7 7.6 L 11 12 L 8.5 12 Z" fill="#FFB5C8"/>
  <path d="M 22.3 7.6 L 23.5 12 L 21 12 Z" fill="#FFB5C8"/>
  <ellipse cx="11.5" cy="19" rx="2.5" ry="3.3" fill="#1F1F1F"/>
  <ellipse cx="20.5" cy="19" rx="2.5" ry="3.3" fill="#1F1F1F"/>
  <circle cx="12.3" cy="17.5" r="1.1" fill="#FFFFFF"/>
  <circle cx="21.3" cy="17.5" r="1.1" fill="#FFFFFF"/>
  <path d="M 14.7 23 L 17.3 23 L 16 24.4 Z" fill="#FF8FA3" stroke="#2A2A2A" stroke-width="0.35" stroke-linejoin="round"/>
  <path d="M 14.6 25 Q 16 26.2 17.4 25" fill="none" stroke="#2A2A2A" stroke-width="0.75" stroke-linecap="round"/>
</svg>
