<svg xmlns="http://www.w3.org/2000/svg" width="22" height="22" viewBox="3 3 26 26">
  <path d="M 5.2 15.2 Q 5 12.9 6.1 10.3 L 8.5 6.1 Q 9.1 5 10.3 5.5 L 14.1 8.8 Q 16 8.3 17.9 8.8 L 21.7 5.5 Q 22.9 5 23.5 6.1 L 25.9 10.3 Q 27 12.9 26.8 15.2 C 27.2 22.6 22.8 28 16 28 C 9.2 28 4.8 22.6 5.2 15.2 Z"
        fill="#D8DDE6" stroke="#1E1E1E" stroke-width="1.3" stroke-linejoin="round" stroke-linecap="round"/>
  <path d="M 8.9 8.2 L 10.7 11.5 L 8.2 12 Z" fill="#C8A7B5"/>
  <path d="M 23.1 8.2 L 23.8 12 L 21.3 11.5 Z" fill="#C8A7B5"/>
  <path d="M 6.6 21.5 Q 16 27.4 25.4 21.5 Q 23.6 27.8 16 27.8 Q 8.4 27.8 6.6 21.5 Z" fill="#EEF1F6"/>
  <path d="M 4.2 17.4 L 9 18.8 M 3.8 20.9 L 8.9 20.9 M 4.5 24.2 L 9.4 22.9"
        fill="none" stroke="#1E1E1E" stroke-width="0.9" stroke-linecap="round"/>
  <path d="M 27.8 17.4 L 23 18.8 M 28.2 20.9 L 23.1 20.9 M 27.5 24.2 L 22.6 22.9"
        fill="none" stroke="#1E1E1E" stroke-width="0.9" stroke-linecap="round"/>
  <ellipse cx="11.4" cy="18.7" rx="1.9" ry="2.55" fill="#1E2736"/>
  <ellipse cx="20.6" cy="18.7" rx="1.9" ry="2.55" fill="#1E2736"/>
  <circle cx="12" cy="17.5" r="0.75" fill="#FFFFFF"/>
  <circle cx="21.2" cy="17.5" r="0.75" fill="#FFFFFF"/>
  <ellipse cx="10.1" cy="22.1" rx="1.9" ry="1.0" fill="#DCA1B2" opacity="0.7"/>
  <ellipse cx="21.9" cy="22.1" rx="1.9" ry="1.0" fill="#DCA1B2" opacity="0.7"/>
  <path d="M 14.5 20.9 Q 16 20.3 17.5 20.9 Q 17 21.8 16 22 Q 15 21.8 14.5 20.9 Z" fill="#243044"/>
  <path d="M 16 22 L 16 24.4" fill="none" stroke="#1E1E1E" stroke-width="0.7" stroke-linecap="round"/>
</svg>
