<svg xmlns="http://www.w3.org/2000/svg" width="22" height="22" viewBox="3 3 26 26">
  <path d="M 5.6 14.2 L 7 6.2 L 11.8 9.1 Q 16 7.2 20.2 9.1 L 25 6.2 L 26.4 14.2 C 27.1 22.5 23 28 16 28 C 9 28 4.9 22.5 5.6 14.2 Z"
        fill="#7A5A46" stroke="#1E1E1E" stroke-width="1.35" stroke-linejoin="round" stroke-linecap="round"/>
  <path d="M 8.4 7.8 L 10.9 10.1 L 7.9 12.7 Z" fill="#5F4334"/>
  <path d="M 23.6 7.8 L 21.1 10.1 L 24.1 12.7 Z" fill="#5F4334"/>
  <path d="M 7.4 15.1 Q 9.4 10.3 14.9 11.9 Q 16 12.2 16 13.5 Q 16 12.2 17.1 11.9 Q 22.6 10.3 24.6 15.1 Q 24 22.4 16 25 Q 8 22.4 7.4 15.1 Z"
        fill="#F0E2C7"/>
  <circle cx="10.2" cy="17.1" r="3.3" fill="#FFF8EA" stroke="#1E1E1E" stroke-width="0.75"/>
  <circle cx="19.2" cy="17.1" r="3.3" fill="#FFF8EA" stroke="#1E1E1E" stroke-width="0.75"/>
  <circle cx="9.9" cy="17.1" r="1.65" fill="#171922"/>
  <circle cx="18.9" cy="17.1" r="1.65" fill="#171922"/>
  <circle cx="10.4" cy="16.4" r="0.55" fill="#FFFFFF"/>
  <circle cx="19.4" cy="16.4" r="0.55" fill="#FFFFFF"/>
  <path d="M 14.4 20.1 L 17.6 20.1 L 16 23 Z" fill="#F3A726" stroke="#1E1E1E" stroke-width="0.55" stroke-linejoin="round"/>
  <path d="M 12.4 24.7 Q 16 26 19.6 24.7" fill="none" stroke="#5F4334" stroke-width="0.75" stroke-linecap="round"/>
</svg>
