<svg xmlns="http://www.w3.org/2000/svg" width="22" height="22" viewBox="3 3 26 26">
  <circle cx="8.4" cy="10" r="3" fill="#9D8F83" stroke="#1E1E1E" stroke-width="1.15"/>
  <circle cx="23.6" cy="10" r="3" fill="#9D8F83" stroke="#1E1E1E" stroke-width="1.15"/>
  <circle cx="8.4" cy="10" r="1.45" fill="#C9BEB3"/>
  <circle cx="23.6" cy="10" r="1.45" fill="#C9BEB3"/>
  <path d="M 5 15 Q 5 8.8 16 8.8 Q 27 8.8 27 15 L 27 21 Q 27 28 16 28 Q 5 28 5 21 Z"
        fill="#9D8F83" stroke="#1E1E1E" stroke-width="1.3" stroke-linejoin="round"/>
  <ellipse cx="16" cy="22.4" rx="5.4" ry="4.2" fill="#E2D7CA"/>
  <path d="M 9.1 18.2 Q 11.5 19.8 13.9 18.2" fill="none" stroke="#1F1F1F" stroke-width="1.1" stroke-linecap="round"/>
  <path d="M 18.1 18.2 Q 20.5 19.8 22.9 18.2" fill="none" stroke="#1F1F1F" stroke-width="1.1" stroke-linecap="round"/>
  <ellipse cx="16" cy="21.2" rx="1.45" ry="1.05" fill="#2A2A2A"/>
  <path d="M 16 22.2 Q 14.8 23.5 13.6 23.2 M 16 22.2 Q 17.2 23.5 18.4 23.2"
        fill="none" stroke="#1E1E1E" stroke-width="0.75" stroke-linecap="round"/>
</svg>
