<svg xmlns="http://www.w3.org/2000/svg" width="22" height="22" viewBox="3 3 26 26">
  <g transform="translate(-4 1)">
    <path d="M 5 14 L 9 5 L 12 13 Q 16 13.6 20 13 L 23 5 L 27 14 C 27 24 24 28 16 28 C 8 28 5 24 5 14 Z"
          fill="#FFFFFF" stroke="#2A2A2A" stroke-width="1.3" stroke-linejoin="round" stroke-linecap="round"/>
    <path d="M 9.7 7.6 L 11 12 L 8.5 12 Z" fill="#FFB5C8"/>
    <path d="M 22.3 7.6 L 23.5 12 L 21 12 Z" fill="#FFB5C8"/>
    <path d="M 8.8 19.5 Q 11.5 21.4 14.2 19.5" fill="none" stroke="#1F1F1F" stroke-width="1.2" stroke-linecap="round"/>
    <path d="M 17.8 19.5 Q 20.5 21.4 23.2 19.5" fill="none" stroke="#1F1F1F" stroke-width="1.2" stroke-linecap="round"/>
    <path d="M 14.7 23 L 17.3 23 L 16 24.4 Z" fill="#FF8FA3" stroke="#2A2A2A" stroke-width="0.35" stroke-linejoin="round"/>
    <path d="M 14.6 25 Q 16 26 17.4 25" fill="none" stroke="#2A2A2A" stroke-width="0.75" stroke-linecap="round"/>
  </g>
  <g fill="none" stroke="#2A2A2A" stroke-linecap="round" stroke-linejoin="round">
    <path stroke-width="1.0" d="M 22 14 L 26 14 L 22 17 L 26 17"/>
    <path stroke-width="1.2" d="M 23.5 7.5 L 28.5 7.5 L 23.5 11.5 L 28.5 11.5"/>
  </g>
</svg>
