<svg xmlns="http://www.w3.org/2000/svg" width="22" height="22" viewBox="3 3 26 26">
  <g transform="translate(-4 1)">
    <path d="M 6.5 5.5 L 11 12 L 12.8 11.5 Z" fill="#E2A663" stroke="#2A2A2A" stroke-width="1.2" stroke-linejoin="round"/>
    <path d="M 25.5 5.5 L 21 12 L 19.2 11.5 Z" fill="#E2A663" stroke="#2A2A2A" stroke-width="1.2" stroke-linejoin="round"/>
    <path d="M 8.4 7.8 L 10.7 11 L 11.7 10.8 Z" fill="#C57F36"/>
    <path d="M 23.6 7.8 L 21.3 11 L 20.3 10.8 Z" fill="#C57F36"/>
    <path d="M 6 14 Q 6 8 16 8 Q 26 8 26 14 Q 26 25 19 28 Q 16 29 13 28 Q 6 25 6 14 Z"
          fill="#E2A663" stroke="#2A2A2A" stroke-width="1.3" stroke-linejoin="round"/>
    <ellipse cx="11.5" cy="15" rx="2.5" ry="1.1" fill="#FFD9A6" opacity="0.7"/>
    <ellipse cx="20.5" cy="15" rx="2.5" ry="1.1" fill="#FFD9A6" opacity="0.7"/>
    <path d="M 10 21 Q 16 26 22 21 Q 22 25.5 16 27 Q 10 25.5 10 21 Z" fill="#FFF8EE" stroke="#2A2A2A" stroke-width="0.55"/>
    <path d="M 10 18 Q 11.8 19.4 13.6 18" fill="none" stroke="#1F1F1F" stroke-width="1.1" stroke-linecap="round"/>
    <path d="M 18.4 18 Q 20.2 19.4 22 18" fill="none" stroke="#1F1F1F" stroke-width="1.1" stroke-linecap="round"/>
    <ellipse cx="16" cy="22.4" rx="1.3" ry="0.85" fill="#1F1F1F"/>
    <path d="M 14.6 23.6 Q 16 24.4 17.4 23.6" fill="none" stroke="#2A2A2A" stroke-width="0.75" stroke-linecap="round"/>
  </g>
  <g fill="none" stroke="#2A2A2A" stroke-linecap="round" stroke-linejoin="round">
    <path stroke-width="1.0" d="M 22 14 L 26 14 L 22 17 L 26 17"/>
    <path stroke-width="1.2" d="M 23.5 7.5 L 28.5 7.5 L 23.5 11.5 L 28.5 11.5"/>
  </g>
</svg>
