<svg xmlns="http://www.w3.org/2000/svg" width="22" height="22" viewBox="3 3 26 26">
  <g transform="translate(0 -0.6)">
    <circle cx="8.1" cy="9.2" r="2.0" fill="#A87A57" stroke="#1E1E1E" stroke-width="1.05"/>
    <circle cx="23.9" cy="9.2" r="2.0" fill="#A87A57" stroke="#1E1E1E" stroke-width="1.05"/>
    <circle cx="8.1" cy="9.2" r="0.85" fill="#6F4329"/>
    <circle cx="23.9" cy="9.2" r="0.85" fill="#6F4329"/>
    <path d="M 5 13.2 Q 5 8.8 16 8.8 Q 27 8.8 27 13.2 L 27 21.8 Q 27 28 16 28 Q 5 28 5 21.8 Z"
          fill="#A87A57" stroke="#1E1E1E" stroke-width="1.3" stroke-linejoin="round"/>
    <path d="M 7.1 23 Q 16 27.8 24.9 23 Q 23 28 16 28 Q 9 28 7.1 23 Z" fill="#C5966E" opacity="0.75"/>
    <ellipse cx="11.4" cy="15.5" rx="1.55" ry="1.75" fill="#1F1F1F"/>
    <ellipse cx="20.6" cy="15.5" rx="1.55" ry="1.75" fill="#1F1F1F"/>
    <circle cx="11.9" cy="14.9" r="0.52" fill="#FFFFFF"/>
    <circle cx="21.1" cy="14.9" r="0.52" fill="#FFFFFF"/>
    <ellipse cx="16" cy="21" rx="6.1" ry="4.0" fill="#765038"/>
    <ellipse cx="14.3" cy="19.6" rx="0.62" ry="0.86" fill="#151515"/>
    <ellipse cx="17.7" cy="19.6" rx="0.62" ry="0.86" fill="#151515"/>
    <path d="M 12.5 22.2 Q 16 24.1 19.5 22.2" fill="none" stroke="#151515" stroke-width="0.9" stroke-linecap="round"/>
  </g>
</svg>
