<svg xmlns="http://www.w3.org/2000/svg" width="22" height="22" viewBox="3 3 26 26">
  <path d="M 7 6 L 11.5 11 L 13 11 Z" fill="#F4A467" stroke="#2A2A2A" stroke-width="1.2" stroke-linejoin="round"/>
  <path d="M 25 6 L 20.5 11 L 19 11 Z" fill="#F4A467" stroke="#2A2A2A" stroke-width="1.2" stroke-linejoin="round"/>
  <path d="M 8.5 8.5 L 11 11 L 12 10.6 Z" fill="#FFD3B0"/>
  <path d="M 23.5 8.5 L 21 11 L 20 10.6 Z" fill="#FFD3B0"/>
  <ellipse cx="16" cy="19" rx="10" ry="9" fill="#F4A467" stroke="#2A2A2A" stroke-width="1.3"/>
  <path d="M 13 11.5 L 13 13.5 M 16 11 L 16 13.2 M 19 11.5 L 19 13.5"
        stroke="#C56F2A" stroke-width="0.9" stroke-linecap="round" fill="none"/>
  <path d="M 13 22 Q 16 27 19 22 Q 19 25 16 26 Q 13 25 13 22 Z" fill="#FFE5C9"/>
  <ellipse cx="10.5" cy="18.8" rx="1.9" ry="2.4" fill="#1F1F1F"/>
  <ellipse cx="18.9" cy="18.8" rx="1.9" ry="2.4" fill="#1F1F1F"/>
  <circle cx="11.1" cy="17.8" r="0.85" fill="#FFFFFF"/>
  <circle cx="19.5" cy="17.8" r="0.85" fill="#FFFFFF"/>
  <ellipse cx="9.5" cy="21" rx="1.4" ry="0.9" fill="#FFB28A" opacity="0.85"/>
  <ellipse cx="22.5" cy="21" rx="1.4" ry="0.9" fill="#FFB28A" opacity="0.85"/>
  <path d="M 14.8 21.2 L 17.2 21.2 L 16 22.4 Z" fill="#FF8FA3" stroke="#2A2A2A" stroke-width="0.32" stroke-linejoin="round"/>
  <path d="M 16 22.6 Q 14.6 23.6 13.4 23.1 M 16 22.6 Q 17.4 23.6 18.6 23.1"
        fill="none" stroke="#2A2A2A" stroke-width="0.75" stroke-linecap="round"/>
</svg>
