<svg xmlns="http://www.w3.org/2000/svg" width="22" height="22" viewBox="3 3 26 26">
  <g transform="translate(-4 1)">
    <circle cx="8.5" cy="9" r="2.2" fill="#A47551" stroke="#2A2A2A" stroke-width="1.1"/>
    <circle cx="23.5" cy="9" r="2.2" fill="#A47551" stroke="#2A2A2A" stroke-width="1.1"/>
    <circle cx="8.5" cy="9" r="1.0" fill="#7B4F2E"/>
    <circle cx="23.5" cy="9" r="1.0" fill="#7B4F2E"/>
    <path d="M 5 13 Q 5 9 16 9 Q 27 9 27 13 L 27 22 Q 27 28 16 28 Q 5 28 5 22 Z"
          fill="#A47551" stroke="#2A2A2A" stroke-width="1.3" stroke-linejoin="round"/>
    <ellipse cx="16" cy="25" rx="9" ry="3" fill="#BC8F66" opacity="0.7"/>
    <path d="M 10 15.6 Q 11.5 16.6 13 15.6" fill="none" stroke="#1F1F1F" stroke-width="1.0" stroke-linecap="round"/>
    <path d="M 19 15.6 Q 20.5 16.6 22 15.6" fill="none" stroke="#1F1F1F" stroke-width="1.0" stroke-linecap="round"/>
    <ellipse cx="16" cy="22" rx="5.5" ry="3.5" fill="#7B4F2E"/>
    <ellipse cx="14.5" cy="20.5" rx="0.5" ry="0.7" fill="#1F1F1F"/>
    <ellipse cx="17.5" cy="20.5" rx="0.5" ry="0.7" fill="#1F1F1F"/>
    <path d="M 13 23 Q 16 23.8 19 23" fill="none" stroke="#1F1F1F" stroke-width="0.85" stroke-linecap="round"/>
  </g>
  <path d="M 22 14 L 26 14 L 22 17 L 26 17" fill="none" stroke="#2A2A2A" stroke-width="1.0" stroke-linecap="round" stroke-linejoin="round"/>
</svg>
