<svg xmlns="http://www.w3.org/2000/svg" width="22" height="22" viewBox="3 3 26 26">
  <circle cx="8.5" cy="9" r="2.2" fill="#A47551" stroke="#2A2A2A" stroke-width="1.1"/>
  <circle cx="23.5" cy="9" r="2.2" fill="#A47551" stroke="#2A2A2A" stroke-width="1.1"/>
  <circle cx="8.5" cy="9" r="1.0" fill="#7B4F2E"/>
  <circle cx="23.5" cy="9" r="1.0" fill="#7B4F2E"/>
  <path d="M 5 13 Q 5 9 16 9 Q 27 9 27 13 L 27 22 Q 27 28 16 28 Q 5 28 5 22 Z"
        fill="#A47551" stroke="#2A2A2A" stroke-width="1.3" stroke-linejoin="round"/>
  <ellipse cx="16" cy="25" rx="9" ry="3" fill="#BC8F66" opacity="0.7"/>
  <!-- Slightly bigger eyes for variety -->
  <circle cx="11.5" cy="15.4" r="1.3" fill="#1F1F1F"/>
  <circle cx="20.5" cy="15.4" r="1.3" fill="#1F1F1F"/>
  <circle cx="11.8" cy="14.9" r="0.5" fill="#FFFFFF"/>
  <circle cx="20.8" cy="14.9" r="0.5" fill="#FFFFFF"/>
  <ellipse cx="16" cy="22" rx="5.5" ry="3.5" fill="#7B4F2E"/>
  <ellipse cx="14.5" cy="20.5" rx="0.5" ry="0.7" fill="#1F1F1F"/>
  <ellipse cx="17.5" cy="20.5" rx="0.5" ry="0.7" fill="#1F1F1F"/>
  <!-- Wider chill smile -->
  <path d="M 12.5 23 Q 16 24.8 19.5 23" fill="none" stroke="#1F1F1F" stroke-width="0.95" stroke-linecap="round"/>
</svg>
