<svg xmlns="http://www.w3.org/2000/svg" width="22" height="22" viewBox="3 3 26 26">
  <g transform="translate(-4 1)">
    <path d="M 5.4 15 Q 5.5 9.8 7.2 8.0 Q 8.7 6.3 10.4 7.4 L 13.4 8.6 Q 16 7.7 18.6 8.6 L 21.6 7.4 Q 23.3 6.3 24.8 8.0 Q 26.5 9.8 26.6 15 C 27.3 23.2 22.8 28.1 16 28.1 C 9.2 28.1 4.7 23.2 5.4 15 Z"
          fill="#F1A236" stroke="#1E1E1E" stroke-width="1.35" stroke-linejoin="round" stroke-linecap="round"/>
    <path d="M 9.6 8.5 Q 12.2 9.6 11.5 10.9 Q 10.2 12.2 8.9 11.8 Q 8.0 10.3 9.6 8.5 Z" fill="#FFF9EA"/>
    <path d="M 22.4 8.5 Q 19.8 9.6 20.5 10.9 Q 21.8 12.2 23.1 11.8 Q 24.0 10.3 22.4 8.5 Z" fill="#FFF9EA"/>
    <path d="M 13.8 8.4 C 14.1 12.7 14 17.6 13 20.3 L 19 20.3 C 18 17.6 17.9 12.7 18.2 8.4 Q 16 7.8 13.8 8.4 Z" fill="#FFFDF5"/>
    <path d="M 14.6 8.7 L 14.6 13.4 M 16 8.5 L 16 13.7 M 17.4 8.7 L 17.4 13.4"
          fill="none" stroke="#D77C25" stroke-width="0.85" stroke-linecap="round" opacity="0.75"/>
    <path d="M 5.9 20.8 Q 8.8 18.1 12.7 19.6 Q 16 17.8 19.3 19.6 Q 23.2 18.1 26.1 20.8 Q 24.2 27.4 16 28.1 Q 7.8 27.4 5.9 20.8 Z"
          fill="#FFFDF5"/>
    <path d="M 4.2 17.8 L 9.2 18.8 M 3.9 20.9 L 9.1 20.9 M 4.7 24 L 9.5 22.7 M 27.8 17.8 L 22.8 18.8 M 28.1 20.9 L 22.9 20.9 M 27.3 24 L 22.5 22.7"
          fill="none" stroke="#1E1E1E" stroke-width="0.95" stroke-linecap="round"/>
    <path d="M 9.2 17.3 Q 11.4 18.9 13.6 17.3" fill="none" stroke="#1E1E1E" stroke-width="1.05" stroke-linecap="round"/>
    <path d="M 18.4 17.3 Q 20.6 18.9 22.8 17.3" fill="none" stroke="#1E1E1E" stroke-width="1.05" stroke-linecap="round"/>
    <ellipse cx="9.6" cy="21.9" rx="1.5" ry="0.85" fill="#F58AAF" opacity="0.5"/>
    <ellipse cx="22.4" cy="21.9" rx="1.5" ry="0.85" fill="#F58AAF" opacity="0.5"/>
    <ellipse cx="16" cy="20.7" rx="1.55" ry="1.0" fill="#090909"/>
    <path d="M 16 21.6 L 16 23.6 M 16 23.6 Q 14.8 24.5 13.6 23.9 M 16 23.6 Q 17.2 24.5 18.4 23.9"
          fill="none" stroke="#1E1E1E" stroke-width="0.8" stroke-linecap="round"/>
  </g>
  <path d="M 22 14 L 26 14 L 22 17 L 26 17" fill="none" stroke="#1E1E1E" stroke-width="1.0" stroke-linecap="round" stroke-linejoin="round"/>
</svg>
